<svg width="711" height="707" viewBox="0 0 711 707" fill="none" xmlns="http://www.w3.org/2000/svg">
<g clip-path="url(#clip0_339_110)">
<path d="M627.019 365.25C634.362 367.735 655.749 421.384 658.968 431.162C651.869 437.465 646.076 442.766 638.667 448.939C634.207 436.419 631.638 423.257 625.69 411.229C624.561 408.952 623.618 406.477 622.688 404.108C617.789 408.071 611.576 413.532 607.05 417.912C627.046 469.329 631.842 516.575 622.821 571.375C620.721 584.121 616.549 603.865 612.045 616.145C609.472 617.036 601.806 618.679 598.821 619.409C571.292 626.3 542.947 629.365 514.585 628.515C510.396 635.339 506.104 644.104 501.667 650.574C490.643 666.655 478.571 682.647 464.744 696.411C461.471 699.671 457.645 705.096 453.946 707.288C448.566 705.902 443.672 704.68 438.415 702.877C424.743 698.936 411.213 694.184 398.02 688.891C390.349 685.818 383.143 681.907 375.836 678.068C377.807 676.411 381.859 673.581 384.056 672.027C386.855 670.038 396.018 661.385 398.919 662.098C404.933 663.568 411.147 666.805 417.032 668.998C426.838 672.647 436.577 675.441 446.599 678.285C460.745 664.051 473.247 647.66 484.377 630.977C486.361 628.05 499.488 603.634 501.029 603.492C507.907 603.072 514.878 603.723 521.8 603.794C545.955 604.042 567.912 599.662 591.367 594.874C593.723 587.545 596.452 574.653 597.78 567.066C605.407 525.419 603.294 482.567 591.62 441.867C589.082 433.244 583.063 419.325 579.596 410.662C582.762 407.305 587.271 404.905 590.707 401.858C598.697 394.772 606.864 388.164 613.786 379.993C617.732 375.343 622.099 370.082 626.43 365.821L627.019 365.25Z" fill="#FEFEFA"/>
<path d="M256.891 0.0664062C266.813 1.74312 271.348 3.4898 280.703 6.43445C299.462 12.3392 318.59 18.8092 335.496 29.0306C326.398 34.6422 321.356 38.6445 313.636 45.8044C307.647 43.8624 302.065 40.6905 296.511 38.6985C286.958 35.2733 273.879 30.6046 264.142 28.59C253.092 40.0555 242.955 52.3664 233.823 65.4112C224.244 78.8062 218.663 89.1641 211.486 103.842C209.416 103.833 207.338 103.618 205.266 103.479C181.544 101.884 157.208 104.522 133.91 109.012C129.397 109.882 124.585 111.186 120.027 111.483C118.338 119.195 115.36 128.453 114.038 135.51C107.245 171.767 106.507 210.923 114.465 247.01C118.133 263.64 125.086 280.893 131.361 296.53C122.304 302.814 112.911 310.996 104.979 318.686C101.351 322.204 98.249 326.061 94.4796 329.72C90.9503 333.858 87.5082 338.07 84.1561 342.353C70.755 324.589 58.9714 297.189 51.8477 276.071C55.8637 271.612 67.6181 261.634 72.6187 258.674C77.0559 275.3 81.9572 287.294 88.0928 303.185C92.6811 298.407 98.8703 293.936 104.056 289.417C100.005 277.226 95.3875 267.258 92.1616 254.424C79.6193 204.527 81.6963 139.496 99.3402 91.0675C114.899 84.595 179.823 75.2181 196.495 78.5068C199.922 72.529 203.312 65.2389 207.177 59.4917C219.65 40.9456 233.257 22.6059 249.462 7.13728C252.066 4.65145 254.064 2.28829 256.891 0.0664062Z" fill="#FEFEFA"/>
<path d="M63.7399 209.105C63.7642 209.128 63.7917 209.147 63.8134 209.171C64.9463 210.439 67.3732 233.378 67.4242 236.52C61.6145 241.224 54.9824 244.861 49.6023 250.183C43.0481 256.666 33.734 262.936 28.5235 270.485C37.986 302.297 48.7723 325.713 66.8462 353.333C62.9648 359.826 57.6259 367.292 54.2299 373.838C43.355 394.795 34.8947 414.347 28.6231 437.036C29.237 437.74 29.9411 438.471 30.5931 439.148C65.2226 474.746 109.023 500.074 157.151 512.328C169.298 515.411 181.249 517.953 193.866 518.227C194.464 520.521 194.886 523.506 195.157 525.876C197.492 546.181 203.062 564.255 209.9 583.449C190.153 583.67 172.121 583.914 152.622 580.406C147.509 579.485 142.143 579.069 137.217 577.244C134.197 571.695 132.312 557.253 131.584 550.628C135.631 551.549 139.749 552.909 143.9 553.87C155.114 556.474 166.493 558.307 177.958 559.357C176.866 553.48 175.104 545.101 174.56 539.361C165.826 537.984 156.197 536.412 147.629 534.281C103.42 523.09 62.4763 501.624 28.1231 471.633C18.7669 463.564 7.83884 453.426 -0.167969 444.002C6.32729 416.579 21.8533 376.996 37.4519 353.515C36.3766 351.708 35.3257 349.888 34.2986 348.054C21.8094 325.728 11.2725 303.575 4.45081 278.863C3.69925 276.398 -1.22911 264.149 0.33027 262.405C15.6158 245.318 32.9044 229.788 51.822 216.662C55.7464 213.939 59.4586 211.347 63.7399 209.105Z" fill="#FEFEFA"/>
<path d="M84.7495 533.938C92.2368 536.971 102.475 540.541 109.517 543.836C111.033 549.296 111.882 560.917 113.205 567.272C115.152 576.617 117.378 585.953 120.058 595.111C128.091 595.984 139.585 599.048 148.189 600.355C170.548 603.747 188.708 604.345 211.109 603.194C212.907 605.647 214.953 610.776 216.63 613.707C219.557 618.818 222.47 624.606 225.602 629.593C235.678 645.643 247.019 659.416 259.514 673.566C260.638 674.837 263.539 678.043 265.013 677.844C270.389 677.113 277.855 674.496 282.975 672.866C316.719 662.375 348.024 645.244 375.053 622.476C385.81 613.482 395.359 604.367 404.451 593.619C408.999 588.242 412.976 581.041 418.184 576.263C423.233 577.667 430.669 581.037 436.121 582.884C452.499 588.437 465.24 591.785 482.194 594.057C473.367 610.297 464.319 626.192 452.357 640.306C449.744 643.389 447.135 647.197 444.664 650.444C442.924 652.37 441.927 653.526 439.872 655.173C432.272 653.181 422.542 649.305 415 646.498C416.564 643.792 425.669 634.699 428.287 631.551C433.969 624.717 439.686 617.268 445.43 610.55C438.858 607.804 432.21 605.691 425.634 602.782C420.855 609.66 415.722 615.284 410.08 621.44C371.013 664.088 313.262 695.058 256.766 706.786C254.385 704.912 250.558 700.957 248.326 698.69C229.102 679.15 208.934 652.782 196.496 628.411C177.674 631.179 116.058 623.141 99.4668 615.736C91.2514 600.288 84.5728 551.449 84.7495 533.938Z" fill="#FEFEFA"/>
<path d="M501.051 123.727C521.14 123.143 555.033 123.958 574.516 129.448C576.557 135.931 578.528 149.442 579.104 156.416C564.865 151.51 548.115 148.721 533.093 147.506C534.417 153.044 536.33 162.273 536.915 167.83C546.021 169.348 554.046 170.066 563.169 172.389C622.431 187.471 669.739 218.303 711.126 262.562C708.017 281.459 698.362 302.533 691.108 320.347C686.582 331.468 679.495 342.884 673.512 353.464C676.971 360.005 683.047 369.456 685.939 375.678C695.377 396.006 706.976 422.977 711.099 444.726C707.136 449.129 695.944 459.89 691.373 464.12C679.15 475.931 661.577 489.284 647.161 498.522C646.554 495.364 646.43 491.764 645.89 488.544C644.862 482.441 643.729 476.649 643.179 470.448C652.157 465.302 675.647 444.642 682.556 436.79C680.191 431.29 678.273 423.894 676.333 418.083C668.813 395.577 657.639 374.802 645.332 354.607C644.078 352.552 646.612 350.404 647.413 348.508C663.787 323.888 673.339 298.214 682.472 270.443C676.019 262.566 668.299 256.438 660.616 249.84C626.385 220.253 585.052 200.069 540.666 191.266C533.239 189.84 524.585 188.904 517.065 188.029C516.379 183.279 515.781 178.371 514.948 173.66C511.968 156.773 506.689 139.862 501.051 123.727Z" fill="#FEFEFA"/>
<path d="M453.381 0.230469C457.234 0.651639 460.007 5.72606 462.761 8.44972C476.916 22.4165 488.953 38.0282 500.282 54.317C505.482 61.7966 509.468 71.4636 515.052 78.4672C540.349 76.2847 572.445 81.81 597.366 86.8556C600.714 87.7657 608.539 88.992 611.095 91.0487C612.884 92.4881 613.748 96.7892 614.363 98.7897C621.976 123.536 624.696 148.23 627.251 173.876C622.853 171.598 618.336 169.552 613.721 167.749C610.165 166.355 604.903 164.606 601.75 162.719C600.284 159.924 597.804 139.753 596.728 134.901C595.138 127.702 593.225 119.245 591.524 111.933C584.597 110.862 577.153 108.64 570.075 107.541C546.235 103.838 523.963 101.636 499.968 103.754C485.074 75.6222 469.529 51.0738 446.402 28.6278C426.313 33.7261 406.817 40.9503 388.256 50.1779C349.513 69.228 317.855 95.5864 293.225 131.043C276.939 123.487 247.396 114.702 229.676 112.759C235.821 96.4114 258.668 63.0584 271.511 51.9033C277.463 53.3325 291.138 57.7448 296.364 60.6261C292.661 65.3347 287.1 69.8427 283.31 74.2931C277.329 81.3171 271.321 89.4384 265.807 96.8565C270.761 98.0102 280.19 101.811 285.098 103.742C288.411 100.831 292.268 94.9132 295.318 91.4137C330.169 51.4383 377.211 22.7155 427.814 7.40986C436.308 4.84076 444.426 1.72472 453.381 0.230469Z" fill="#FEFEFA"/>
<path d="M536.026 474.961C536.265 474.935 536.756 475.045 537.022 475.09C537.868 477.454 539.507 493.11 538.771 495.741C534.112 498.841 506.052 500.107 499.276 500.205C499.165 526.268 491.494 549.864 483.314 574.204C467.047 573.885 424.54 559.97 410.935 550.603C407.462 557.787 402.21 564.824 397.396 571.162C365.831 612.685 320.8 639.536 271.53 654.979C258.565 645.015 236.476 609.678 229.656 594.142C235.995 593.54 246.255 591.401 252.419 589.891C253.193 589.811 257.825 588.323 258.999 588.035C270.825 585.116 281.687 580.515 293.142 576.418C296.404 579.882 303.017 589.62 306.114 593.885C295.477 599.811 277.466 605.9 265.563 610.404C268.816 613.704 275.546 622.938 278.657 626.994C322.047 612.118 360.428 586.875 388.086 549.935C391.802 544.97 400.651 529.248 404.048 526.361C407.055 526.511 411.767 529.474 414.464 531.024C431.311 540.705 450.014 545.36 468.96 549.567C472.189 536.795 476.795 524.625 478.465 511.467C479.753 501.29 480.232 491.533 480.723 481.307C502.912 481.077 514.147 480.466 536.026 474.961Z" fill="#FEFEFA"/>
<path d="M437.919 52.4103C438.574 52.3009 439.978 52.1193 440.43 52.5794C454.429 66.7221 474.235 95.3758 481.808 112.918C464.115 114.23 434.154 123.209 418.414 131.099C413.95 126.6 408.441 118.564 405.079 113.131C416.102 106.515 433.158 101.361 445.288 96.572C441.085 91.2377 435.908 84.9086 432.033 79.6194C426.187 82.2522 420.079 84.2593 414.145 86.7031C380.101 100.791 350.111 123.155 326.897 151.767C319.033 161.55 313.044 169.944 308.177 181.615C301.257 178.543 295.485 174.679 288.79 171.598C273.976 164.781 257.952 160.807 242.156 156.998L239.562 165.58C235.518 179.737 233.006 193.397 231.645 208.071C231.15 213.399 231.723 219.689 230.823 224.711C230.538 226.297 224.98 225.586 222.977 225.592C206.54 225.642 190.055 227.307 174.373 232.207C172.995 226.571 172.124 216.63 171.5 210.75C185.769 208.784 197.446 206.449 212.163 206.436C213.678 184.438 216.722 163.564 224.4 142.799C225.341 140.254 226.603 132.9 229.613 132.858C234.219 132.794 240.284 134.359 244.792 135.57C260.754 139.857 286.584 146.024 299.79 156.135C300.243 155.273 300.712 154.419 301.197 153.573C328.019 106.663 380.349 71.7952 430.469 54.742C432.98 53.8877 435.359 53.1065 437.919 52.4103Z" fill="#FEFEFA"/>
<path d="M387.052 124.059C391.879 125.433 408.496 151.458 410.639 156.347C415.622 152.797 426.308 148.363 431.769 146.03C438.775 143.037 477.97 131.072 483.077 133.325C484.219 134.998 485.459 139.876 486.287 142.244C493.13 161.815 499.002 185.579 499.233 206.449C543.277 206.711 587.25 222.659 623.562 247.156C636.879 256.139 647.194 265.52 659.134 275.888C652.371 299.653 639.993 321.038 627.854 342.344C622.123 337.229 615.958 328.643 610.471 323.01C606.015 318.438 601.201 314.177 596.48 309.884C590.625 304.938 585.311 300.945 579.491 296.184C581.679 290.322 585.187 281.848 587.875 276.315C598.677 280.688 613.478 295.374 622.778 302.727C625.249 296.595 628.509 289.243 631.171 282.985C628 280.025 621.024 275.046 617.251 272.08C587.569 248.734 550.855 232.911 513.529 227.306C502.461 225.643 491.77 225.5 480.623 225.619C479.941 198.457 477.084 183.22 468.714 157.375C453.2 160.137 434.922 165.724 420.564 172.305C415.874 174.455 408.332 178.914 403.668 181.515C397.791 170.46 389.939 158.733 382.215 148.913C378.526 144.226 373.688 140.778 370.203 135.415C376.077 130.357 380.298 127.772 387.052 124.059Z" fill="#FEFEFA"/>
<path d="M83.7384 365.176C85.0466 365.756 96.2935 379.029 98.5916 381.553C108.504 392.43 119.468 401.885 131.378 410.539C128.717 417.284 126.093 424.042 123.505 430.814C114.095 426.54 96.0681 411.513 88.1384 403.865C85.4377 410.645 82.826 417.461 80.3043 424.308C89.1247 431.11 99.5102 439.848 108.819 445.73C144.918 468.537 188.067 483.281 231.017 481.004C231.249 483.493 231.178 486.35 231.194 488.874C231.321 509.844 235.64 529.981 242.234 549.72C258.375 546.403 273.673 542.191 288.741 535.345C294.939 532.528 301.664 527.625 307.928 525.504C311.801 533.281 318.22 545.535 324.392 551.802C329.839 559.078 335.096 564.525 340.639 571.443C337.361 574.096 327.11 581.966 323.507 583.449C316.627 575.615 304.686 559.844 299.844 550.668C282.836 561.78 248.359 571.806 228.094 574.167C226.432 571.204 224.724 565.903 223.582 562.546C216.606 542.045 213.348 522.143 212.127 500.584C191.645 499.636 178.923 498.059 159.044 492.59C130.416 484.711 105.245 472.811 81.2613 455.185C71.1425 447.749 60.3991 439.746 51.918 430.544C60.5461 406.19 69.165 386.62 83.7384 365.176Z" fill="#FEFEFA"/>
<path d="M194.038 123.415C198.975 123.394 204.715 123.703 209.705 123.854C202.547 144.121 196.96 165.673 194.099 187.165C193.91 188.584 175.211 190.353 171.848 190.979C172.109 180.053 175.605 158.123 178.132 147.419L157.038 149.922C156.2 160.786 153.28 172.793 152.471 183.259C149.889 216.686 156.49 255.443 169.9 286.051C172.955 293.024 178.582 302.586 182.317 309.785C167.586 315.107 138.57 341.177 128.806 353.652C140.554 366.243 150.699 376.77 164.946 386.739C170.195 390.415 176.742 393.98 182.363 397.195C180.159 402.058 174.773 411.535 172.044 416.198C168.827 420.933 161.751 443.825 159.855 449.914C153.901 447.695 145.875 444.259 140.467 441.004C142.839 432.673 146.563 423.878 150.335 416.052C152.368 411.836 154.761 408.563 156.651 403.989C137.022 393.585 114.499 371.026 100.996 353.647C111.713 336.792 139.44 312.254 156.726 302.797C154.216 297.938 151.117 292.854 148.893 287.967C128.865 243.937 124.511 194.742 132.749 147.306C133.465 143.18 135.064 133.609 137.156 130.277C143.985 125.375 183.885 123.76 194.038 123.415Z" fill="#FEFEFA"/>
<path d="M551.901 257.574C555.033 258.088 569.302 263.755 570.268 266.258C569.608 271.943 557.681 296.545 554.669 302.886C557.384 304.196 561.809 307.488 564.47 309.356C581.946 321.58 597.425 336.444 610.339 353.419C608.625 356.085 604.821 360.115 602.629 362.754C588.35 379.955 572.982 391.816 554.545 404.154C569.063 431.652 577.717 457.507 580.826 488.556C583.43 514.557 582.075 538.645 577.46 564.305C576.875 567.547 576.06 574.89 574.293 577.091C571.317 578.796 564.962 579.389 561.277 579.943C543.42 582.627 518.801 585.036 500.957 582.737C503.548 576.661 507.308 565.749 508.862 559.327C511.785 548.959 514.757 538.747 515.887 528.025C516.197 525.089 516.719 522.011 517.149 519.079C523.783 518.016 533.203 517.237 539.16 515.815C539.51 528.233 535.665 547.64 533.212 559.876C537.335 558.915 549.807 557.184 553.824 557.091C555.374 551.431 556.543 541.98 557.274 535.828C561.906 499.265 557.3 462.121 543.876 427.799C541.653 422.183 538.85 416.01 536.02 410.677C533.562 406.041 530.887 401.962 528.61 397.139C542.406 390.974 556.007 379.061 567.229 369.101C572.469 364.455 577.252 358.649 582.252 353.596C569.825 337.378 546.667 319.237 528.571 309.391C535.546 296.87 542.428 285.117 546.684 271.285C548.124 266.601 549.55 261.892 551.901 257.574Z" fill="#FEFEFA"/>
<path d="M401 454.161V460H309V454.161H316.601C325.468 454.161 331.908 451.583 335.919 446.428C338.453 443.061 339.719 434.96 339.719 422.124V283.876C339.719 273.039 339.033 265.885 337.661 262.413C336.605 259.783 334.441 257.521 331.169 255.627C326.524 253.102 321.668 251.839 316.601 251.839H309V246H401V251.839H393.241C384.479 251.839 378.092 254.417 374.081 259.572C371.442 262.939 370.122 271.04 370.122 283.876V422.124C370.122 432.961 370.808 440.115 372.181 443.587C373.236 446.217 375.453 448.479 378.831 450.373C383.371 452.898 388.174 454.161 393.241 454.161H401Z" fill="white"/>
</g>
<defs>
<clipPath id="clip0_339_110">
<rect width="711" height="707" fill="white"/>
</clipPath>
</defs>
</svg>
